<svg width="576" height="476" viewBox="0 0 576 476" fill="none" xmlns="http://www.w3.org/2000/svg">
<ellipse cx="288.045" cy="449.375" rx="287.5" ry="25.5" fill="url(#paint0_radial)"/>
<path d="M123.957 360.632H102.834C102.263 360.632 101.801 361.094 101.801 361.664V370.082C101.801 370.652 102.263 371.114 102.834 371.114H123.957C124.527 371.114 124.989 370.652 124.989 370.082V361.664C124.989 361.094 124.527 360.632 123.957 360.632Z" fill="#936045"/>
<path d="M137.616 372.385H116.492C115.922 372.385 115.46 372.847 115.46 373.417V381.835C115.46 382.405 115.922 382.867 116.492 382.867H137.616C138.186 382.867 138.648 382.405 138.648 381.835V373.417C138.648 372.847 138.186 372.385 137.616 372.385Z" fill="#936045"/>
<path d="M148.892 360.473H127.769C127.199 360.473 126.736 360.935 126.736 361.505V369.923C126.736 370.493 127.199 370.955 127.769 370.955H148.892C149.462 370.955 149.925 370.493 149.925 369.923V361.505C149.924 360.935 149.462 360.473 148.892 360.473Z" fill="#936045"/>
<path d="M137.139 348.72H116.016C115.446 348.72 114.984 349.182 114.984 349.753V358.17C114.984 358.74 115.446 359.203 116.016 359.203H137.139C137.71 359.203 138.172 358.74 138.172 358.17V349.753C138.172 349.182 137.709 348.72 137.139 348.72Z" fill="#936045"/>
<path d="M161.598 348.72H140.475C139.904 348.72 139.442 349.182 139.442 349.753V358.17C139.442 358.74 139.904 359.203 140.475 359.203H161.598C162.168 359.203 162.63 358.74 162.63 358.17V349.753C162.63 349.182 162.168 348.72 161.598 348.72Z" fill="#936045"/>
<path d="M173.351 360.473H152.227C151.657 360.473 151.195 360.935 151.195 361.505V369.923C151.195 370.493 151.657 370.955 152.227 370.955H173.351C173.921 370.955 174.383 370.493 174.383 369.923V361.505C174.383 360.935 173.921 360.473 173.351 360.473Z" fill="#936045"/>
<path d="M162.392 372.226H141.269C140.698 372.226 140.236 372.688 140.236 373.258V381.676C140.236 382.246 140.698 382.708 141.269 382.708H162.392C162.962 382.708 163.424 382.246 163.424 381.676V373.258C163.424 372.688 162.962 372.226 162.392 372.226Z" fill="#936045"/>
<path d="M134.598 325.214H113.475C112.905 325.214 112.442 325.677 112.442 326.247V334.664C112.442 335.235 112.905 335.697 113.475 335.697H134.598C135.168 335.697 135.631 335.235 135.631 334.664V326.247C135.63 325.677 135.168 325.214 134.598 325.214Z" fill="#936045"/>
<path d="M149.369 336.967H128.245C127.675 336.967 127.213 337.429 127.213 338V346.417C127.213 346.987 127.675 347.45 128.245 347.45H149.369C149.939 347.45 150.401 346.987 150.401 346.417V338C150.401 337.429 149.939 336.967 149.369 336.967Z" fill="#936045"/>
<path d="M124.751 336.967H103.628C103.058 336.967 102.595 337.429 102.595 338V346.417C102.595 346.987 103.058 347.45 103.628 347.45H124.751C125.321 347.45 125.784 346.987 125.784 346.417V338C125.783 337.429 125.321 336.967 124.751 336.967Z" fill="#936045"/>
<rect x="95.6375" y="316.977" width="430.905" height="129.092" fill="#645470"/>
<rect x="95.6375" y="330.828" width="430.905" height="14.4052" fill="#5B4965"/>
<rect x="95.6375" y="362.224" width="430.905" height="14.4052" fill="#5B4965"/>
<rect x="95.6375" y="393.989" width="430.905" height="14.4052" fill="#5B4965"/>
<rect x="95.6375" y="423.169" width="430.905" height="14.4052" fill="#5B4965"/>
<rect x="82.4442" y="312.36" width="461.334" height="9.6034" fill="#E6CEBA"/>
<rect x="409.492" y="250.769" width="11.4964" height="6.8564" fill="#A7A7B7"/>
<rect x="406.098" y="245.644" width="18.2834" height="7.4796" fill="#C4C4C5"/>
<rect x="402.359" y="255.201" width="7.2026" height="1.5236" fill="#C4C4C5"/>
<path d="M403.917 257.036V254.82L388.963 254.269C387.901 254.229 387.018 255.08 387.018 256.142C387.018 257.226 387.935 258.084 389.016 258.013L403.917 257.036Z" fill="#37374F"/>
<rect x="429.645" y="242.92" width="56.8818" height="62.053" fill="#C4C4C5"/>
<rect x="399.727" y="232.208" width="86.8002" height="14.4052" fill="#62627C"/>
<rect x="399.727" y="297.955" width="86.8002" height="14.4052" fill="#62627C"/>
<path d="M441.973 232.208V311.991" stroke="#37374F" stroke-width="1.10808"/>
<rect x="405.729" y="283.919" width="15.7902" height="10.1806" fill="white"/>
<rect x="407.322" y="292.022" width="12.6044" height="3.7398" fill="white"/>
<path d="M406.976 286.643C406.976 286.643 402.612 285.235 401.366 287.659C400.595 289.159 401.851 292.045 406.329 292.322" stroke="#FFFCFA" stroke-width="2.21618"/>
<rect x="399.819" y="295.739" width="29.826" height="2.2278" fill="#37374F"/>
<path d="M481.264 299.894C481.01 299.894 480.802 300.102 480.802 300.356V309.867C480.802 310.121 481.01 310.328 481.264 310.328C481.518 310.328 481.726 310.121 481.726 309.867V300.356C481.725 300.102 481.518 299.894 481.264 299.894Z" fill="#37374F"/>
<path d="M478.586 299.894C478.332 299.894 478.124 300.102 478.124 300.356V309.867C478.124 310.121 478.332 310.328 478.586 310.328C478.84 310.328 479.048 310.121 479.048 309.867V300.356C479.048 300.102 478.84 299.894 478.586 299.894Z" fill="#37374F"/>
<path d="M475.631 299.894C475.377 299.894 475.169 300.102 475.169 300.356V309.867C475.169 310.121 475.377 310.328 475.631 310.328C475.885 310.328 476.093 310.121 476.093 309.867V300.356C476.093 300.102 475.885 299.894 475.631 299.894Z" fill="#37374F"/>
<path d="M472.953 299.894C472.699 299.894 472.491 300.102 472.491 300.356V309.867C472.491 310.121 472.699 310.328 472.953 310.328C473.207 310.328 473.415 310.121 473.415 309.867V300.356C473.415 300.102 473.207 299.894 472.953 299.894Z" fill="#37374F"/>
<path d="M469.814 299.894C469.56 299.894 469.352 300.102 469.352 300.356V309.867C469.352 310.121 469.56 310.328 469.814 310.328C470.068 310.328 470.275 310.121 470.275 309.867V300.356C470.275 300.102 470.067 299.894 469.814 299.894Z" fill="#37374F"/>
<path d="M467.136 299.894C466.882 299.894 466.674 300.102 466.674 300.356V309.867C466.674 310.121 466.882 310.328 467.136 310.328C467.39 310.328 467.597 310.121 467.597 309.867V300.356C467.597 300.102 467.39 299.894 467.136 299.894Z" fill="#37374F"/>
<rect opacity="0.55" x="127.483" y="266.282" width="76.2042" height="44.0466" fill="#B4C9FF"/>
<rect x="127.322" y="306.668" width="76.5504" height="5.6932" fill="#37374F"/>
<rect x="127.322" y="288.167" width="76.5504" height="3.972" fill="#37374F"/>
<rect x="127.322" y="264.897" width="76.5504" height="3.972" fill="#37374F"/>
<path d="M149.334 297.308C149.334 296.524 148.698 295.889 147.914 295.889C147.13 295.889 146.494 296.524 146.494 297.308C146.494 298.093 147.13 298.728 147.914 298.728C148.698 298.728 149.334 298.092 149.334 297.308Z" fill="#FF95A9"/>
<rect x="134.709" y="298.786" width="16.1596" height="7.849" fill="#E6CEBA"/>
<rect x="134.709" y="303.738" width="16.1596" height="0.808" fill="#FF95A9"/>
<rect x="134.709" y="301.198" width="16.1596" height="0.808" fill="#FF95A9"/>
<path d="M151.423 306.692H150.315V299.346L134.64 299.507L134.628 298.399L150.863 298.232C151.061 298.225 151.154 298.288 151.258 298.392C151.364 298.496 151.423 298.638 151.423 298.786V306.692H151.423Z" fill="#E5649A"/>
<circle cx="191.96" cy="278.748" r="1.4198" fill="#FFC359"/>
<rect x="178.756" y="280.225" width="16.1596" height="7.849" fill="#E6CEBA"/>
<rect x="178.756" y="285.177" width="16.1596" height="0.808" fill="#FF95A9"/>
<rect x="178.756" y="282.638" width="16.1596" height="0.808" fill="#FF95A9"/>
<path d="M195.469 288.132H194.361V280.786L178.687 280.947L178.675 279.839L194.909 279.672C195.107 279.665 195.2 279.728 195.305 279.832C195.41 279.936 195.469 280.078 195.469 280.226V288.132Z" fill="#645470"/>
<rect x="156.04" y="298.786" width="16.1596" height="7.849" fill="#E5B587"/>
<rect x="156.04" y="303.738" width="16.1596" height="0.808" fill="#9F7159"/>
<rect x="156.04" y="301.198" width="16.1596" height="0.808" fill="#9F7159"/>
<path d="M172.753 306.692H171.645V299.346L155.971 299.507L155.959 298.399L172.193 298.232C172.391 298.225 172.484 298.288 172.589 298.392C172.694 298.496 172.753 298.638 172.753 298.786V306.692Z" fill="#936045"/>
<rect x="156.04" y="280.364" width="16.1596" height="7.849" fill="#E5B587"/>
<rect x="156.04" y="285.316" width="16.1596" height="0.808" fill="#E6CEBA"/>
<rect x="156.04" y="282.776" width="16.1596" height="0.808" fill="#E6CEBA"/>
<path d="M172.753 288.271H171.645V280.924L155.971 281.085L155.959 279.977L172.193 279.81C172.391 279.804 172.484 279.866 172.589 279.97C172.694 280.075 172.753 280.217 172.753 280.364V288.271Z" fill="#E5649A"/>
<rect x="134.247" y="280.364" width="16.1596" height="7.849" fill="#E5B587"/>
<rect x="134.247" y="285.316" width="16.1596" height="0.808" fill="#E6CEBA"/>
<rect x="134.247" y="282.776" width="16.1596" height="0.808" fill="#E6CEBA"/>
<path d="M150.961 288.271H149.853V280.924L134.178 281.085L134.166 279.977L150.401 279.81C150.599 279.804 150.692 279.866 150.796 279.97C150.902 280.075 150.961 280.217 150.961 280.364V288.271H150.961Z" fill="#E5649A"/>
<rect x="177.647" y="298.786" width="16.1596" height="7.849" fill="#936045"/>
<rect x="177.647" y="303.738" width="16.1596" height="0.808" fill="#9F7159"/>
<rect x="177.647" y="301.198" width="16.1596" height="0.808" fill="#9F7159"/>
<path d="M194.361 306.692H193.253V299.346L177.579 299.507L177.567 298.399L193.801 298.232C193.999 298.225 194.092 298.288 194.197 298.392C194.302 298.496 194.361 298.638 194.361 298.786V306.692H194.361Z" fill="#4F2F21"/>
<rect x="501.993" y="257.389" width="15.79" height="10.1805" transform="rotate(18.6995 501.993 257.389)" fill="#FFF6F5"/>
<rect x="500.904" y="265.575" width="12.6044" height="3.73975" transform="rotate(18.6995 500.904 265.575)" fill="#FFF6F5"/>
<path d="M499.445 266.58C496.987 265.576 495.366 263.902 494.996 261.987C494.755 260.736 495.087 259.525 495.886 258.751C497.964 256.737 501.308 258.269 502.957 259.492L501.638 261.273C500.875 260.714 498.467 259.337 497.429 260.342C497.237 260.527 497.055 260.96 497.172 261.567C497.279 262.119 497.795 263.512 500.283 264.529L499.445 266.58Z" fill="#FFF6F5"/>
<rect x="498.439" y="270.137" width="15.7902" height="10.1806" fill="#FFE4E1"/>
<rect x="500.032" y="278.24" width="12.6044" height="3.7398" fill="#FFE4E1"/>
<path d="M498.971 279.646C496.321 279.483 494.249 278.417 493.285 276.722C492.655 275.614 492.581 274.361 493.09 273.371C494.412 270.798 498.071 271.176 500.025 271.806L499.347 273.916C498.445 273.631 495.723 273.099 495.061 274.384C494.939 274.621 494.906 275.089 495.211 275.626C495.489 276.115 496.425 277.268 499.107 277.434L498.971 279.646Z" fill="#FFE4E1"/>
<rect x="498.439" y="280.318" width="15.7902" height="10.1806" fill="#FFF6F5"/>
<rect x="500.032" y="288.421" width="12.6044" height="3.7398" fill="#FFF6F5"/>
<path d="M498.971 289.827C496.321 289.663 494.249 288.598 493.285 286.903C492.655 285.795 492.581 284.542 493.09 283.552C494.412 280.978 498.071 281.357 500.025 281.987L499.347 284.097C498.445 283.811 495.723 283.28 495.061 284.564C494.939 284.801 494.906 285.27 495.211 285.807C495.489 286.296 496.425 287.449 499.107 287.615L498.971 289.827Z" fill="#FFF6F5"/>
<rect x="498.439" y="290.36" width="15.7902" height="10.1806" fill="#FFE4E1"/>
<rect x="500.032" y="298.463" width="12.6044" height="3.7398" fill="#FFE4E1"/>
<path d="M498.971 299.869C496.321 299.705 494.249 298.64 493.285 296.945C492.655 295.837 492.581 294.584 493.09 293.594C494.412 291.02 498.071 291.399 500.025 292.029L499.347 294.139C498.445 293.853 495.723 293.322 495.061 294.606C494.939 294.843 494.906 295.312 495.211 295.849C495.489 296.338 496.425 297.491 499.107 297.657L498.971 299.869Z" fill="#FFE4E1"/>
<rect x="498.439" y="300.54" width="15.7902" height="10.1806" fill="#FFF6F5"/>
<rect x="500.032" y="308.643" width="12.6044" height="3.7398" fill="#FFF6F5"/>
<path d="M498.971 310.049C496.321 309.886 494.249 308.82 493.285 307.125C492.655 306.017 492.581 304.764 493.09 303.774C494.412 301.201 498.071 301.579 500.025 302.209L499.347 304.319C498.445 304.034 495.723 303.502 495.061 304.787C494.939 305.024 494.906 305.492 495.211 306.029C495.489 306.518 496.425 307.672 499.107 307.837L498.971 310.049Z" fill="#FFF6F5"/>
<path d="M132.248 292.18L134.864 301.819L142.3 314.487L141.198 320.271L137.618 327.707C137.618 327.707 136.93 327.569 137.481 325.916L136.104 326.743C136.104 326.743 136.104 325.779 136.241 324.126L134.451 325.503C134.451 325.503 134.038 324.677 134.864 323.3C135.69 321.923 135.69 317.792 135.69 317.792L133.762 313.661L134.175 322.749C134.175 322.749 132.248 323.576 128.392 304.022L123.986 288.462L132.248 292.18Z" fill="#F4BB9C"/>
<path d="M67.1488 436.072L68.3442 404.35L77.8106 405.766L76.3154 436.86L67.1488 436.072Z" fill="#FED2BA"/>
<path d="M67.1076 432.96C67.1076 432.96 64.1838 440.843 65.4742 446.935L99.5414 447.55C99.5414 447.55 101.759 441.055 94.0888 439.282C86.4182 437.51 76.617 431.468 76.617 431.468C76.617 431.468 71.7028 437.011 67.1076 432.96Z" fill="#0460BA"/>
<path d="M65.4646 446.935L99.5318 447.55C99.5318 447.55 100.074 445.954 99.69 444.129L65.1392 443.505C65.1386 444.669 65.2308 445.831 65.4646 446.935Z" fill="#F7EAD5"/>
<path fill-rule="evenodd" clip-rule="evenodd" d="M75.704 433.959C76.0024 433.393 76.3444 432.832 76.8428 432.431C77.5566 431.857 78.504 431.677 79.4144 431.576C80.2072 431.488 81.0052 431.447 81.803 431.451C82.8426 431.456 83.9402 431.56 84.7882 432.161C85.0464 432.344 85.2952 432.633 85.225 432.941C85.1726 433.172 84.9576 433.328 84.7414 433.422C84.0532 433.724 83.262 433.615 82.5216 433.486C80.7322 433.174 78.9572 432.78 77.204 432.305C77.4294 433.261 77.5254 434.247 77.4884 435.229C77.4538 436.151 77.295 437.088 76.8458 437.894C76.653 438.24 76.3994 438.566 76.0552 438.762C75.711 438.958 75.2638 439.004 74.921 438.805C74.5806 438.608 74.399 438.206 74.373 437.814C74.347 437.421 74.4538 437.033 74.573 436.658C74.8694 435.727 75.2482 434.823 75.704 433.959Z" stroke="#333333" stroke-width="0.5" stroke-linecap="round" stroke-linejoin="round"/>
<path d="M99.6898 444.129L65.139 443.505" stroke="#333333" stroke-width="0.5" stroke-linecap="round" stroke-linejoin="round"/>
<path d="M66.8356 433.935C66.8356 433.935 73.5152 435.939 74.6284 443.621" stroke="#333333" stroke-width="0.5" stroke-linecap="round" stroke-linejoin="round"/>
<path d="M97.673 440.949L89.046 440.983C85.5048 440.997 82.0262 441.916 78.9408 443.654L78.8032 443.732" stroke="#333333" stroke-width="0.5" stroke-linecap="round" stroke-linejoin="round"/>
<path d="M73.9606 433.546L85.9838 439.446L87.6536 437.164" stroke="#333333" stroke-width="0.5" stroke-linecap="round" stroke-linejoin="round"/>
<path d="M117.607 434.212L114.482 403.775L124.481 404.007L126.773 435L117.607 434.212Z" fill="#FED2BA"/>
<path d="M117.101 432.495C117.101 432.495 114.177 440.378 115.467 446.47L149.535 447.085C149.535 447.085 151.753 440.59 144.082 438.817C136.411 437.045 126.61 431.003 126.61 431.003C126.61 431.003 121.696 436.546 117.101 432.495Z" fill="#0460BA"/>
<path d="M115.458 446.47L149.525 447.085C149.525 447.085 150.067 445.489 149.683 443.664L115.132 443.04C115.132 444.204 115.224 445.366 115.458 446.47Z" fill="#F7EAD5"/>
<path fill-rule="evenodd" clip-rule="evenodd" d="M125.697 433.494C125.995 432.928 126.337 432.367 126.836 431.966C127.55 431.392 128.497 431.212 129.407 431.111C130.2 431.024 130.998 430.982 131.796 430.986C132.836 430.991 133.933 431.095 134.781 431.696C135.039 431.879 135.288 432.168 135.218 432.476C135.166 432.707 134.951 432.863 134.734 432.957C134.046 433.259 133.255 433.15 132.515 433.021C130.725 432.709 128.95 432.315 127.197 431.84C127.422 432.796 127.518 433.782 127.481 434.764C127.447 435.686 127.288 436.623 126.839 437.429C126.646 437.775 126.392 438.101 126.048 438.297C125.704 438.493 125.257 438.539 124.914 438.34C124.574 438.143 124.392 437.741 124.366 437.349C124.34 436.956 124.447 436.568 124.566 436.193C124.862 435.262 125.241 434.358 125.697 433.494Z" stroke="#333333" stroke-width="0.5" stroke-linecap="round" stroke-linejoin="round"/>
<path d="M149.683 443.664L115.132 443.04" stroke="#333333" stroke-width="0.5" stroke-linecap="round" stroke-linejoin="round"/>
<path d="M116.829 433.47C116.829 433.47 123.508 435.474 124.622 443.156" stroke="#333333" stroke-width="0.5" stroke-linecap="round" stroke-linejoin="round"/>
<path d="M147.666 440.484L139.039 440.518C135.498 440.532 132.019 441.451 128.934 443.189L128.796 443.267" stroke="#333333" stroke-width="0.5" stroke-linecap="round" stroke-linejoin="round"/>
<path d="M123.954 433.08L135.977 438.981L137.647 436.699" stroke="#333333" stroke-width="0.5" stroke-linecap="round" stroke-linejoin="round"/>
<path d="M67.0468 284.024L68.2094 367.733L65.419 421.912L82.3934 423.539L89.1366 369.361L96.1124 323.553C96.1124 323.553 104.251 369.593 104.251 371.453C104.251 373.314 109.831 421.679 109.831 421.679L128.433 421.214L125.876 370.058L117.737 279.838L75.185 279.141L67.0468 284.024Z" fill="#37374F"/>
<path d="M96.1124 323.553V285.535H103.437L102.401 311.289L96.1996 320.065" stroke="#2773BF" stroke-width="0.55404" stroke-linecap="round" stroke-linejoin="round"/>
<path d="M120.876 314.485C120.876 314.485 113.029 314.485 111.285 290.418" stroke="#2773BF" stroke-width="0.55404" stroke-linecap="round" stroke-linejoin="round"/>
<path d="M71.2322 304.719L72.1624 366.803L67.9768 422.144" stroke="#2773BF" stroke-width="0.55404" stroke-linecap="round" stroke-linejoin="round"/>
<path d="M71.6972 212.639L67.163 297.22L121.051 297.045L110.762 211.243L97.7402 200.78L80.3008 202.64L71.6972 212.639Z" fill="#F5FAFF"/>
<path d="M80.9552 182.803C80.9552 182.803 82.7284 197.271 80.872 200.428C79.0156 203.586 95.92 207.827 98.5804 200.013C98.6182 199.901 97.166 197.841 96.5982 190.559L80.9552 182.803Z" fill="#FED2BA"/>
<path d="M81.66 189.391C81.6228 188.97 81.2148 185.558 81.1796 185.194L96.5934 190.853C96.7606 192.869 96.9946 194.473 97.2442 195.736C88.4816 200.715 82.5588 192.63 81.66 189.391Z" fill="#E1A382"/>
<path d="M104.245 171.355C104.092 178.887 101.919 193.887 94.3926 194.208C86.4732 194.545 82.2912 190.441 80.686 183.134C80.686 183.134 76.8164 184.837 76.7288 179.446C76.6902 177.068 79.4164 178.147 79.4164 178.147C79.4164 178.147 73.5722 159.001 85.7554 156.566C97.9388 154.131 104.454 161.044 104.245 171.355Z" fill="#FED2BA"/>
<path d="M90.752 172.887C90.9808 173 91.2104 173.129 91.4526 173.157C91.6948 173.186 91.9592 173.09 92.0864 172.836C92.27 172.47 92.092 171.958 91.8342 171.646C91.3164 171.02 90.5606 170.87 89.859 170.775C89.1406 170.677 88.4114 170.602 87.7076 170.757C87.0038 170.912 86.3188 171.322 85.9012 172.04C85.8516 172.125 85.804 172.223 85.8116 172.33C85.8222 172.483 85.9438 172.598 86.0644 172.623C86.1848 172.647 86.3044 172.603 86.4202 172.564C87.823 172.087 89.366 172.202 90.752 172.887Z" fill="#945661"/>
<path d="M98.2012 173.273C97.9888 173.372 97.7746 173.488 97.5576 173.502C97.3406 173.516 97.1146 173.406 97.0238 173.146C96.8924 172.771 97.094 172.271 97.349 171.976C97.8612 171.382 98.5432 171.277 99.1728 171.222C99.8174 171.165 100.47 171.133 101.08 171.328C101.69 171.523 102.261 171.971 102.57 172.709C102.606 172.797 102.64 172.897 102.624 173.004C102.602 173.155 102.484 173.263 102.375 173.28C102.267 173.298 102.164 173.247 102.065 173.201C100.864 172.646 99.4874 172.671 98.2012 173.273Z" fill="#945661"/>
<path d="M95.1082 177.454C94.9148 179.191 95.5898 180.893 96.2344 182.518C96.2988 182.68 96.3628 182.864 96.2918 183.023C96.261 183.092 96.2078 183.148 96.1528 183.199C95.8606 183.473 95.4876 183.659 95.0934 183.729C94.5302 183.828 93.8524 183.731 93.479 184.164" stroke="#38384F" stroke-width="0.5" stroke-linecap="round" stroke-linejoin="round"/>
<ellipse cx="99.2246" cy="176.826" rx="2.30698" ry="1.18479" transform="rotate(-88.2063 99.2246 176.826)" fill="#38384F"/>
<path d="M90.3092 177.008C90.349 175.735 89.8512 174.686 89.1972 174.665C88.5432 174.645 87.9808 175.661 87.9408 176.934C87.901 178.208 88.3988 179.257 89.0528 179.277C89.7068 179.298 90.2694 178.282 90.3092 177.008Z" fill="#38384F"/>
<path d="M98.4132 185.951C98.4132 185.951 93.5196 187.207 88.8058 185.9C88.8058 185.9 90.6526 189.592 93.7674 189.445C96.8824 189.299 98.4132 185.951 98.4132 185.951Z" fill="white"/>
<path d="M94.7816 190.042C94.7816 190.042 94.1146 190.746 92.3524 190.17" stroke="#38384F" stroke-width="0.5" stroke-linecap="round" stroke-linejoin="round"/>
<path d="M106.832 165.113C107.47 164.653 108.278 164.174 108.306 163.388C108.333 162.629 107.588 162.078 106.877 161.81C106.167 161.542 105.362 161.381 104.861 160.81C106.423 160.534 107.032 158.421 106.379 156.975C105.808 155.712 104.593 154.824 103.284 154.368C101.974 153.912 100.564 153.838 99.1774 153.828C96.5704 153.809 93.962 154.002 91.386 154.404C89.2238 154.742 86.8346 155.184 84.9866 154.012C84.4598 153.678 83.9824 153.214 83.369 153.102C82.3884 152.922 81.4546 153.762 81.1672 154.716C80.88 155.671 81.0706 156.696 81.2628 157.674C80.2118 157.375 78.9898 157.274 78.1094 157.921C77.229 158.568 77.1216 160.193 78.1242 160.628C78.4498 160.769 78.8744 160.797 79.045 161.109C79.2358 161.457 78.9562 161.866 78.7068 162.176C76.7228 164.637 75.7638 167.9 76.1004 171.043C76.437 174.187 78.065 177.172 80.5252 179.158C81.2878 176.417 82.4838 173.817 83.3476 171.106C84.2114 168.396 84.7398 165.484 84.1178 162.708C89.2192 165.876 95.6348 166.3 101.545 165.24C101.993 165.16 102.491 165.081 102.873 165.33C103.279 165.594 103.395 166.127 103.477 166.605C103.779 168.369 104.081 170.134 104.383 171.898C103.742 169.424 104.759 166.607 106.832 165.113Z" fill="#503535"/>
<path d="M83.0578 171.339C81.9692 170.93 81.7828 169.489 81.8198 168.327C81.965 163.772 82.7892 159.24 84.257 154.925C88.7724 155.178 92.625 151.141 97.1474 151.147C97.9006 151.148 98.799 151.379 99.0306 152.096C99.2914 152.903 98.5202 153.653 97.8014 154.103C96.617 154.845 95.3342 155.428 93.9974 155.835C94.813 156.466 95.6286 157.098 96.4442 157.729C95.0052 159.588 91.5734 159.709 91.1106 162.014C93.5936 163.03 96.0764 164.045 98.5594 165.061C99.1684 165.31 99.8178 165.593 100.161 166.154C100.729 167.081 100.139 168.374 99.1914 168.906C98.2436 169.438 97.085 169.396 96.008 169.25C92.283 168.745 88.7096 167.152 85.8564 164.704C86.326 166.168 86.327 167.778 85.8592 169.243C85.461 170.49 84.2826 171.798 83.0578 171.339Z" fill="#503535"/>
<path d="M81.6378 198.687L57.0482 208.627L48.154 263.039L67.6862 303.847L78.8474 295.476L85.1256 295.127L81.6378 198.687Z" fill="#0460BA"/>
<path d="M97.8564 198.861L106.402 294.604H121.923L125.163 303.113L139.291 299.058L127.649 255.627L121.108 207.748L97.8564 198.861Z" fill="#0460BA"/>
<path d="M72.7436 202.698L79.545 222.056H74.4876L83.9048 262.167" stroke="#242638" stroke-width="0.5" stroke-linejoin="round"/>
<path d="M108.669 203.047L103.088 220.835L109.715 221.358L103.611 261.12" stroke="#242638" stroke-width="0.5" stroke-linejoin="round"/>
<path d="M78.8474 295.476L64.8958 258.853L68.5582 231.473" stroke="#242638" stroke-width="0.5" stroke-linejoin="round"/>
<path d="M57.0482 208.627C57.0482 208.627 65.4192 208.104 68.7326 230.252" stroke="#242638" stroke-width="0.5" stroke-linejoin="round"/>
<path d="M121.893 294.283L118.086 233.74" stroke="#242638" stroke-width="0.5" stroke-linejoin="round"/>
<path d="M119.365 207.29C119.365 207.29 117.389 213.51 118.086 225.892" stroke="#242638" stroke-width="0.5" stroke-linejoin="round"/>
<path d="M76.2316 296.697L77.9756 298.615L82.161 301.231C82.161 301.231 79.8938 314.834 74.8364 316.578L71.1742 303.673L70.1278 301.405L76.2316 296.697Z" fill="#F4BB9C"/>
<circle cx="80.0314" cy="264.653" r="1.439" fill="#242638"/>
<path d="M81.8628 275.118C81.8628 274.324 81.2186 273.679 80.4238 273.679C79.629 273.679 78.9848 274.324 78.9848 275.118C78.9848 275.913 79.629 276.557 80.4238 276.557C81.2186 276.557 81.8628 275.913 81.8628 275.118Z" fill="#242638"/>
<circle cx="81.2742" cy="285.453" r="1.439" fill="#242638"/>
<path d="M308.31 282.811C308.31 282.811 312.742 285.212 313.665 285.951C314.589 286.689 319.575 293.892 319.575 293.892C319.575 293.892 315.512 292.968 315.143 291.676L313.296 290.937L317.174 294.815L322.899 297.586C322.899 297.586 321.976 298.878 321.237 299.063C320.498 299.248 319.206 299.063 315.697 300.725C312.188 302.387 303.877 288.536 303.877 288.536L308.31 282.811Z" fill="#FED2BA"/>
<path d="M279.776 377.645C279.776 377.645 281.162 431.664 283.101 432.772C285.04 433.88 299.445 440.252 301.107 441.637C302.769 443.022 299.999 444.961 295.567 444.961C291.134 444.961 274.236 444.961 274.236 444.961C274.236 444.961 274.513 441.914 275.344 433.603C276.175 425.293 264.54 397.036 266.479 356.037L277.56 357.699L279.776 377.645Z" fill="#FED2BA"/>
<rect x="273.312" y="444.592" width="28.718" height="2.3086" fill="#1A233B"/>
<path d="M293.72 445.515L295.105 437.851L287.995 434.619L284.209 445.885L293.72 445.515Z" fill="#1A233B"/>
<path d="M251.243 371.273C251.243 371.273 243.579 431.664 245.518 432.772C247.457 433.88 261.862 440.252 263.524 441.637C265.186 443.022 262.416 444.961 257.984 444.961C253.551 444.961 236.653 444.961 236.653 444.961C236.653 444.961 236.93 441.914 237.761 433.603C238.592 425.293 233.791 397.036 235.73 356.037L239.977 357.699L251.243 371.273Z" fill="#FED2BA"/>
<rect x="235.73" y="444.592" width="28.718" height="2.3086" fill="#1A233B"/>
<path d="M256.137 445.515L257.522 437.851L250.412 434.619L246.626 445.885L256.137 445.515Z" fill="#1A233B"/>
<path d="M276.729 300.91L286.979 416.151C286.979 416.151 281.438 419.475 273.682 418.921L268.695 357.422L267.587 419.475C267.587 419.475 245.149 423.631 227.419 416.428L234.068 303.126L276.729 300.91Z" fill="#EAEEF2"/>
<path d="M257.576 206.571C257.576 206.571 258.44 216.248 258.959 216.767C259.477 217.285 261.378 218.668 261.378 218.668C261.378 218.668 253.256 222.124 246.171 219.532C246.171 219.532 249.108 216.939 248.936 214.174C248.763 211.409 248.936 201.559 248.936 201.559L257.576 206.571Z" fill="#FED2BA"/>
<path d="M241.131 193.654C240.074 190.9 239.722 187.893 240.401 184.691C242.528 174.656 253.355 175.312 261.098 178.053C264.459 179.243 267.017 182.445 267.436 185.986C267.62 187.549 267.448 189.131 267.514 190.704C267.642 193.756 270.115 195.123 270.429 195.619C270.677 196.01 269.424 197.595 269.146 197.648C268.964 197.683 268.768 198.546 268.774 199C268.799 200.923 268.67 202.881 268.006 204.687C265.653 211.095 259.761 208.484 254.843 205.807C249.309 202.794 243.393 199.548 241.131 193.654Z" fill="#FED2BA"/>
<path d="M266.144 187.116C265.129 187.024 264.081 187.348 263.295 187.998C263.128 188.136 262.967 188.296 262.898 188.501C262.828 188.706 262.877 188.965 263.06 189.082C263.439 188.718 264.009 188.663 264.533 188.627C264.868 188.605 265.203 188.582 265.538 188.559C265.892 188.535 266.265 188.505 266.555 188.302C266.846 188.099 267.003 187.661 266.785 187.381C266.639 187.193 266.381 187.137 266.144 187.116Z" fill="#38384F"/>
<ellipse cx="265.268" cy="191.731" rx="0.963228" ry="1.96226" transform="rotate(-6.84573 265.268 191.731)" fill="#37374F"/>
<path d="M268.275 203.771C268.596 202.573 268.733 201.33 268.762 200.081C267.99 200.269 266.255 200.528 263.432 200.047C263.432 200.047 265.396 203.342 268.275 203.771Z" fill="white"/>
<path d="M241.083 180.333C242.256 178.766 243.771 177.483 245.603 176.694C250.861 174.427 257.232 175.871 262.298 177.972C262.695 178.137 263.105 178.309 263.408 178.615C264.095 179.308 264.028 180.429 263.866 181.391C262.202 191.259 255.435 199.786 246.999 205.171C247.873 204.535 247.664 203.096 246.923 202.31C246.181 201.524 245.107 201.17 244.148 200.671C240.26 198.648 238.317 193.874 238.2 189.641C238.11 186.402 239.112 182.967 241.083 180.333Z" fill="#38384F"/>
<path d="M254.776 196.041C254.876 196.348 255.052 196.627 255.253 196.881C255.776 197.538 256.618 198.068 257.426 197.839C257.938 197.693 258.332 197.264 258.554 196.781C258.776 196.297 258.849 195.76 258.902 195.231C258.915 195.099 258.926 194.962 258.879 194.838C258.836 194.723 258.748 194.633 258.662 194.546C258.236 194.121 257.767 193.703 257.189 193.537C256.506 193.341 255.722 193.552 255.229 194.063C254.736 194.575 254.555 195.365 254.776 196.041Z" fill="#E1A382"/>
<path d="M266.539 195.221C267.03 195.703 266.793 196.419 266.281 196.877C264.968 198.052 262.279 198.008 261.577 196.481C261.382 196.055 261.415 195.534 261.707 195.122C262.359 194.201 263.719 194.426 264.688 194.548C265.304 194.626 266.118 194.809 266.539 195.221Z" fill="#E1A382"/>
<path d="M263.447 186.234C263.587 185.624 263.206 185.015 262.596 184.875C261.985 184.734 261.376 185.115 261.236 185.726C261.096 186.336 261.477 186.945 262.087 187.086C262.698 187.226 263.307 186.845 263.447 186.234Z" fill="#FFC359"/>
<rect x="257.324" y="184.586" width="4.79587" height="0.412623" transform="rotate(12.9551 257.324 184.586)" fill="#FFC359"/>
<path d="M261.576 190.845C261.819 190.267 261.548 189.602 260.971 189.359C260.393 189.115 259.728 189.386 259.485 189.963C259.241 190.541 259.512 191.206 260.09 191.449C260.667 191.693 261.332 191.422 261.576 190.845Z" fill="#FFC359"/>
<rect x="255.83" y="188.147" width="4.79564" height="0.412603" transform="rotate(22.8548 255.83 188.147)" fill="#FFC359"/>
<path d="M261.216 218.08C261.216 218.08 271.466 217.803 275.067 220.573C278.668 223.344 286.61 255.848 286.61 255.848C286.61 255.848 309.695 273.346 309.695 277.224C309.695 281.103 310.618 283.873 310.618 283.873L304.708 290.522C304.708 290.522 298.891 290.152 294.182 289.598C289.472 289.044 278.114 273.577 278.114 273.577C278.114 273.577 279.222 301.464 278.114 303.957C277.006 306.45 243.21 309.498 232.96 304.234L235.176 278.748C235.176 278.748 221.325 267.667 221.879 259.357C222.433 251.046 232.96 222.236 236.007 220.851C239.055 219.466 247.365 218.357 247.365 218.357C247.365 218.357 254.567 220.573 261.216 218.08Z" fill="#0460BA"/>
<path d="M278.114 273.577C278.114 273.577 267.68 262.866 266.202 240.519" stroke="#37374F" stroke-width="0.55404" stroke-linecap="round" stroke-linejoin="round"/>
<path d="M235.176 278.748C235.176 278.748 237.115 248.414 237.253 243.289" stroke="#37374F" stroke-width="0.55404" stroke-linecap="round" stroke-linejoin="round"/>
<path d="M265.126 208.218C263.106 207.957 255.635 205.404 254.706 198.896C254.706 198.896 252.49 202.913 252.559 203.467C252.628 204.021 253.321 209.631 253.321 209.631L253.806 205.753C253.806 205.753 255.525 208.095 257.885 209.735C257.778 208.704 257.69 207.796 257.637 207.225C260.309 208.449 263.017 209.198 265.126 208.218Z" fill="#E1A382"/>
<path d="M225.249 215.554C224.148 217.26 223.349 219.161 222.901 221.141C222.524 222.806 222.396 224.548 222.738 226.219C223.543 230.141 226.92 233.194 230.723 234.445C234.527 235.695 238.684 235.379 242.584 234.473C246.86 233.48 251.215 231.605 253.68 227.972C256.592 223.68 256.212 218.02 255.458 212.888C254.704 207.757 253.723 202.326 255.714 197.537C252.962 197.057 250.516 195.304 248.921 193.011C247.327 190.717 246.543 187.923 246.397 185.134C246.265 182.605 246.629 180.01 245.931 177.577C245.864 177.344 245.77 177.092 245.556 176.978C245.266 176.824 244.916 176.998 244.64 177.174C239.419 180.507 235.855 186.313 235.247 192.477C234.891 196.092 235.481 199.851 234.326 203.295C232.699 208.145 228.023 211.255 225.249 215.554Z" fill="#38384F"/>
<path d="M246.534 176.619C241.524 178.586 236.069 183.224 234.495 188.371C233.318 192.219 233.461 196.361 232.434 200.253C231.766 202.785 230.602 205.185 229.028 207.278C226.943 210.048 224.184 212.241 221.993 214.927C219.802 217.614 218.158 221.107 218.926 224.488C219.464 226.855 221.162 228.869 223.266 230.08C225.37 231.292 227.846 231.754 230.274 231.711" stroke="#38384F" stroke-width="0.55404"/>
<rect x="320.6" width="0.7958" height="80.7" fill="url(#paint1_linear)"/>
<path d="M378.739 110.77H263.361C262.766 110.77 262.283 110.288 262.283 109.692V37.849C262.283 37.2538 262.766 36.7714 263.361 36.7714H378.739C379.334 36.7714 379.816 37.2538 379.816 37.849V109.693C379.816 110.288 379.334 110.77 378.739 110.77Z" fill="#9AC5F7"/>
<path fill-rule="evenodd" clip-rule="evenodd" d="M263.475 36.4478H378.625C379.46 36.4478 380.14 37.1272 380.14 37.9629V109.579C380.14 110.414 379.46 111.093 378.625 111.093H263.475C262.64 111.093 261.96 110.414 261.96 109.579V88.2335V85.0091L262.607 85.9624V89.188V109.579C262.607 110.057 262.996 110.446 263.475 110.446H378.625C379.103 110.446 379.493 110.057 379.493 109.579V37.9631C379.493 37.4843 379.103 37.095 378.625 37.095H263.475C262.998 37.095 262.608 37.4831 262.607 37.961V37.9631V81.6942L261.96 80.7407V37.9629C261.96 37.7094 262.023 37.4711 262.133 37.2618C262.385 36.7787 262.892 36.4478 263.475 36.4478Z" fill="#452C3D"/>
<path d="M376.152 108.882H266.867C265.726 108.882 264.8 107.956 264.8 106.814V44.4H378.22V106.814C378.22 107.956 377.294 108.882 376.152 108.882Z" fill="white"/>
<g opacity="0.50951">
<rect x="270.68" y="62.3201" width="40.8" height="4.56" rx="1.44" fill="#E8EBF3"/>
<rect x="270.68" y="71.2001" width="40.8" height="4.56" rx="1.44" fill="#E8EBF3"/>
<rect x="270.68" y="80.0801" width="40.8" height="4.56" rx="1.44" fill="#E8EBF3"/>
<rect x="270.68" y="88.9601" width="40.8" height="4.56" rx="1.44" fill="#E8EBF3"/>
<rect x="270.68" y="97.8401" width="40.8" height="4.56" rx="1.44" fill="#E8EBF3"/>
</g>
<g opacity="0.50951">
<rect x="320.12" y="62.3201" width="50.16" height="4.56" rx="1.44" fill="#E8EBF3"/>
<rect x="320.12" y="71.2001" width="50.16" height="4.56" rx="1.44" fill="#E8EBF3"/>
<rect x="320.12" y="80.0801" width="50.16" height="4.56" rx="1.44" fill="#E8EBF3"/>
<rect x="320.12" y="88.9601" width="50.16" height="4.56" rx="1.44" fill="#E8EBF3"/>
<rect x="320.12" y="97.8401" width="50.16" height="4.56" rx="1.44" fill="#E8EBF3"/>
</g>
<rect x="270.68" y="51.76" width="18.72" height="4.56" rx="1.44" fill="#D7DCE9"/>
<rect x="296.84" y="51.76" width="30.72" height="4.56" rx="1.44" fill="#D7DCE9"/>
<rect x="335" y="51.76" width="35.28" height="4.56" rx="1.44" fill="#D7DCE9"/>
<path d="M309.91 60.673C312.621 59.3274 315.826 59.039 318.737 59.8534C320.408 60.3154 321.978 61.138 323.316 62.243C324.367 63.1065 325.268 64.1471 325.996 65.2973C327.637 64.7662 329.438 64.7505 331.094 65.2308C332.576 65.661 333.94 66.4941 335.001 67.6191C335.848 68.507 336.502 69.5776 336.915 70.7339C338.137 71.0797 339.282 71.701 340.227 72.5527C341.909 74.0431 342.945 76.2435 343.007 78.4965C343.071 80.1231 342.643 81.7636 341.794 83.1505C340.577 85.1638 338.479 86.6155 336.165 87.0187C335.25 87.1984 334.314 87.1388 333.387 87.1493C330.673 87.1484 327.959 87.1506 325.244 87.1479C329.816 84.496 334.391 81.8458 338.962 79.1926C333.606 76.0956 328.256 72.9856 322.902 69.8838C320.352 68.4039 317.8 66.9296 315.252 65.4461C315.254 66.6203 315.252 67.7948 315.253 68.9694C321.123 72.3735 326.994 75.7789 332.866 79.1808C332.866 79.1878 332.867 79.2013 332.867 79.2082C327.229 82.4753 321.592 85.7454 315.954 89.0134C313.698 90.3237 311.438 91.6261 309.185 92.9412C309.186 88.3552 309.186 83.7691 309.185 79.1826C308.029 79.1839 306.872 79.1826 305.716 79.1834C305.718 81.8001 305.715 84.4168 305.717 87.0335C304.124 86.7586 302.617 86.0095 301.44 84.898C300.401 83.9257 299.616 82.6824 299.188 81.3229C298.621 79.5319 298.676 77.5473 299.351 75.7937C300.021 74.0362 301.303 72.5223 302.924 71.5761C302.971 69.7929 303.402 68.0193 304.187 66.4184C305.392 63.9383 307.44 61.8828 309.91 60.673Z" fill="#0460BA"/>
<path d="M272.353 40.9224C272.353 41.3719 271.98 41.7362 271.518 41.7362C271.057 41.7362 270.683 41.3719 270.683 40.9224C270.683 40.4728 271.057 40.1085 271.518 40.1085C271.98 40.1085 272.353 40.4728 272.353 40.9224Z" fill="white"/>
<path d="M275.613 40.9224C275.613 41.3719 275.239 41.7362 274.778 41.7362C274.317 41.7362 273.943 41.3719 273.943 40.9224C273.943 40.4728 274.317 40.1085 274.778 40.1085C275.239 40.1085 275.613 40.4728 275.613 40.9224Z" fill="#FFFF84"/>
<path d="M278.872 40.9224C278.872 41.3719 278.499 41.7362 278.037 41.7362C277.576 41.7362 277.203 41.3719 277.203 40.9224C277.203 40.4728 277.576 40.1085 278.037 40.1085C278.499 40.1085 278.872 40.4728 278.872 40.9224Z" fill="#A7FF84"/>
<rect x="443.6" y="22" width="0.7958" height="80.7" fill="url(#paint2_linear)"/>
<path d="M512.357 153.827H375.461C374.755 153.827 374.183 153.254 374.183 152.548V67.3057C374.183 66.5996 374.755 66.0272 375.461 66.0272H512.357C513.063 66.0272 513.635 66.5996 513.635 67.3057V152.548C513.635 153.254 513.063 153.827 512.357 153.827Z" fill="#9AC5F7"/>
<path fill-rule="evenodd" clip-rule="evenodd" d="M375.597 65.6434H512.222C513.212 65.6434 514.02 66.4494 514.019 67.441V152.414C514.019 153.404 513.212 154.21 512.221 154.21H375.596C374.605 154.21 373.799 153.404 373.799 152.414V67.441C373.799 67.1403 373.873 66.8576 374.003 66.6094C374.303 66.0363 374.904 65.6434 375.597 65.6434ZM373.799 123.261V118.197L374.567 119.327V124.392L373.799 123.261ZM373.799 127.087V127.087L374.567 128.219V152.414C374.567 152.98 375.029 153.442 375.597 153.442H512.222C512.789 153.442 513.252 152.98 513.252 152.414V67.441C513.252 66.873 512.789 66.411 512.222 66.411H375.597C375.03 66.411 374.568 66.8715 374.567 67.4384V67.441V119.327L374.567 119.328V124.392L374.567 124.392V128.219L373.799 127.087ZM374.567 128.219L374.567 128.219V128.219L374.567 128.219V128.219Z" fill="#452C3D"/>
<path d="M508.719 152.107H379.053C377.698 152.107 376.6 151.009 376.6 149.655V75.6H511.172V149.655C511.172 151.009 510.074 152.107 508.719 152.107Z" fill="white"/>
<rect x="385.32" y="82.64" width="74.16" height="4.56" rx="1.44" fill="#D7DCE9"/>
<g opacity="0.50951">
<rect x="385.32" y="93.2001" width="40.8" height="4.56" rx="1.44" fill="#E8EBF3"/>
<rect x="385.32" y="102.08" width="40.8" height="4.56" rx="1.44" fill="#E8EBF3"/>
<rect x="385.32" y="110.96" width="40.8" height="4.56" rx="1.44" fill="#E8EBF3"/>
<rect x="385.32" y="119.84" width="40.8" height="4.56" rx="1.44" fill="#E8EBF3"/>
<rect x="385.32" y="128.72" width="40.8" height="4.56" rx="1.44" fill="#E8EBF3"/>
<rect x="385.32" y="137.6" width="40.8" height="4.56" rx="1.44" fill="#E8EBF3"/>
</g>
<g opacity="0.50951">
<rect x="438.12" y="93.2001" width="65.04" height="4.56" rx="1.44" fill="#E8EBF3"/>
<rect x="438.12" y="102.08" width="65.04" height="4.56" rx="1.44" fill="#E8EBF3"/>
<rect x="438.12" y="110.96" width="65.04" height="4.56" rx="1.44" fill="#E8EBF3"/>
<rect x="438.12" y="119.84" width="65.04" height="4.56" rx="1.44" fill="#E8EBF3"/>
<rect x="438.12" y="128.72" width="65.04" height="4.56" rx="1.44" fill="#E8EBF3"/>
<rect x="438.12" y="137.6" width="65.04" height="4.56" rx="1.44" fill="#E8EBF3"/>
</g>
<path d="M430.932 95.1275C434.185 93.5129 438.031 93.1668 441.524 94.144C443.53 94.6984 445.414 95.6856 447.02 97.0115C448.281 98.0478 449.362 99.2965 450.235 100.677C452.204 100.039 454.365 100.021 456.352 100.597C458.131 101.113 459.768 102.113 461.042 103.463C462.058 104.528 462.842 105.813 463.338 107.201C464.804 107.616 466.178 108.361 467.312 109.383C469.331 111.172 470.574 113.812 470.649 116.516C470.725 118.468 470.212 120.436 469.193 122.101C467.733 124.516 465.214 126.259 462.438 126.742C461.34 126.958 460.217 126.887 459.105 126.899C455.848 126.898 452.59 126.901 449.333 126.897C454.82 123.715 460.309 120.535 465.795 117.351C459.367 113.635 452.947 109.903 446.522 106.181C443.463 104.405 440.399 102.635 437.342 100.855C437.344 102.264 437.342 103.674 437.343 105.083C444.388 109.168 451.433 113.255 458.479 117.337C458.48 117.345 458.48 117.361 458.481 117.37C451.715 121.29 444.95 125.214 438.184 129.136C435.477 130.708 432.765 132.271 430.062 133.849C430.063 128.346 430.063 122.843 430.062 117.339C428.675 117.341 427.287 117.339 425.899 117.34C425.901 120.48 425.898 123.62 425.9 126.76C423.989 126.43 422.18 125.531 420.768 124.198C419.521 123.031 418.579 121.539 418.066 119.907C417.385 117.758 417.451 115.377 418.262 113.272C419.065 111.163 420.603 109.347 422.548 108.211C422.606 106.071 423.122 103.943 424.065 102.022C425.51 99.0459 427.968 96.5793 430.932 95.1275Z" fill="#0460BA"/>
<path d="M386.13 70.9522C386.13 71.4855 385.687 71.918 385.14 71.918C384.593 71.918 384.15 71.4855 384.15 70.9522C384.15 70.4189 384.593 69.9865 385.14 69.9865C385.687 69.9865 386.13 70.4189 386.13 70.9522Z" fill="white"/>
<path d="M389.998 70.9522C389.998 71.4855 389.554 71.918 389.007 71.918C388.46 71.918 388.017 71.4855 388.017 70.9522C388.017 70.4189 388.46 69.9865 389.007 69.9865C389.555 69.9865 389.998 70.4189 389.998 70.9522Z" fill="#FFFF84"/>
<path d="M393.865 70.9522C393.865 71.4855 393.422 71.918 392.875 71.918C392.328 71.918 391.884 71.4855 391.884 70.9522C391.884 70.4189 392.328 69.9865 392.875 69.9865C393.422 69.9865 393.865 70.4189 393.865 70.9522Z" fill="#A7FF84"/>
<rect x="181" y="24" width="0.7958" height="80.7" fill="url(#paint3_linear)"/>
<path d="M236.045 139.781H126.529C125.964 139.781 125.506 139.323 125.506 138.759V70.5645C125.506 69.9997 125.964 69.5417 126.529 69.5417H236.045C236.61 69.5417 237.068 69.9997 237.068 70.5645V138.759C237.068 139.323 236.61 139.781 236.045 139.781Z" fill="#9AC5F7"/>
<path fill-rule="evenodd" clip-rule="evenodd" d="M126.637 69.2347H235.937C236.73 69.2347 237.376 69.8795 237.375 70.6728V138.651C237.375 139.443 236.729 140.088 235.937 140.088H126.637C125.844 140.088 125.199 139.443 125.199 138.651V70.6728C125.199 70.4322 125.258 70.2061 125.363 70.0075C125.602 69.549 126.084 69.2347 126.637 69.2347ZM125.199 115.329V111.277L125.813 112.182V116.234L125.199 115.329ZM125.199 118.389V118.39L125.813 119.295V138.651C125.813 139.104 126.183 139.474 126.637 139.474H235.937C236.391 139.474 236.761 139.104 236.761 138.651V70.6728C236.761 70.2184 236.391 69.8488 235.937 69.8488H126.637C126.184 69.8488 125.814 70.2172 125.813 70.6707V70.6728V112.182L125.813 112.182V116.234L125.813 116.234V119.295L125.199 118.389ZM125.813 119.295L125.813 119.295V119.295L125.813 119.295V119.295Z" fill="#452C3D"/>
<path d="M233.401 138.017H129.668C128.584 138.017 127.706 137.138 127.706 136.054V76.8107H235.364V136.054C235.364 137.138 234.485 138.017 233.401 138.017Z" fill="white"/>
<rect x="134.416" y="82.8319" width="59.328" height="3.648" rx="1.152" fill="#D7DCE9"/>
<g opacity="0.50951">
<rect x="134.416" y="91.2799" width="32.64" height="3.648" rx="1.152" fill="#E8EBF3"/>
<rect x="134.416" y="98.3839" width="32.64" height="3.648" rx="1.152" fill="#E8EBF3"/>
<rect x="134.416" y="105.488" width="32.64" height="3.648" rx="1.152" fill="#E8EBF3"/>
<rect x="134.416" y="112.592" width="32.64" height="3.648" rx="1.152" fill="#E8EBF3"/>
<rect x="134.416" y="119.696" width="32.64" height="3.648" rx="1.152" fill="#E8EBF3"/>
<rect x="134.416" y="126.8" width="32.64" height="3.648" rx="1.152" fill="#E8EBF3"/>
</g>
<g opacity="0.50951">
<rect x="176.656" y="91.2799" width="52.032" height="3.648" rx="1.152" fill="#E8EBF3"/>
<rect x="176.656" y="98.3839" width="52.032" height="3.648" rx="1.152" fill="#E8EBF3"/>
<rect x="176.656" y="105.488" width="52.032" height="3.648" rx="1.152" fill="#E8EBF3"/>
<rect x="176.656" y="112.592" width="52.032" height="3.648" rx="1.152" fill="#E8EBF3"/>
<rect x="176.656" y="119.696" width="52.032" height="3.648" rx="1.152" fill="#E8EBF3"/>
<rect x="176.656" y="126.8" width="52.032" height="3.648" rx="1.152" fill="#E8EBF3"/>
</g>
<path d="M170.11 91.273C172.821 89.9274 176.026 89.639 178.937 90.4534C180.608 90.9154 182.178 91.738 183.516 92.843C184.567 93.7065 185.468 94.7471 186.196 95.8973C187.837 95.3661 189.638 95.3505 191.293 95.8308C192.776 96.261 194.14 97.0941 195.201 98.2191C196.048 99.107 196.702 100.178 197.115 101.334C198.337 101.68 199.481 102.301 200.426 103.153C202.109 104.643 203.145 106.843 203.207 109.097C203.271 110.723 202.843 112.364 201.994 113.75C200.777 115.764 198.679 117.215 196.365 117.619C195.45 117.798 194.514 117.739 193.587 117.749C190.873 117.748 188.159 117.751 185.444 117.748C190.016 115.096 194.591 112.446 199.162 109.793C193.805 106.696 188.456 103.586 183.102 100.484C180.552 99.0038 177.999 97.5295 175.452 96.0461C175.454 97.2202 175.452 98.3948 175.453 99.5694C181.323 102.973 187.194 106.379 193.066 109.781C193.066 109.788 193.067 109.801 193.067 109.808C187.429 113.075 181.792 116.345 176.154 119.613C173.898 120.924 171.638 122.226 169.385 123.541C169.386 118.955 169.386 114.369 169.385 109.783C168.229 109.784 167.072 109.783 165.916 109.783C165.917 112.4 165.915 115.017 165.917 117.634C164.324 117.359 162.817 116.609 161.64 115.498C160.601 114.526 159.816 113.282 159.388 111.923C158.821 110.132 158.876 108.147 159.551 106.394C160.221 104.636 161.503 103.122 163.124 102.176C163.171 100.393 163.602 98.6193 164.387 97.0184C165.592 94.5383 167.64 92.4828 170.11 91.273Z" fill="#0460BA"/>
<path d="M135.064 73.4818C135.064 73.9085 134.71 74.2544 134.272 74.2544C133.834 74.2544 133.48 73.9085 133.48 73.4818C133.48 73.0552 133.834 72.7092 134.272 72.7092C134.71 72.7092 135.064 73.0552 135.064 73.4818Z" fill="white"/>
<path d="M138.158 73.4818C138.158 73.9085 137.803 74.2544 137.366 74.2544C136.928 74.2544 136.573 73.9085 136.573 73.4818C136.573 73.0552 136.928 72.7092 137.366 72.7092C137.804 72.7092 138.158 73.0552 138.158 73.4818Z" fill="#FFFF84"/>
<path d="M141.252 73.4818C141.252 73.9085 140.897 74.2544 140.46 74.2544C140.022 74.2544 139.667 73.9085 139.667 73.4818C139.667 73.0552 140.022 72.7092 140.46 72.7092C140.898 72.7092 141.252 73.0552 141.252 73.4818Z" fill="#A7FF84"/>
<defs>
<radialGradient id="paint0_radial" cx="0" cy="0" r="1" gradientUnits="userSpaceOnUse" gradientTransform="translate(288.045 449.603) rotate(90) scale(25.2715 3255.74)">
<stop stop-color="#1A233B" stop-opacity="0.163817"/>
<stop offset="0.690341" stop-color="#2F3D5E" stop-opacity="0.116505"/>
<stop offset="1" stop-color="#38496D" stop-opacity="0.01"/>
</radialGradient>
<linearGradient id="paint1_linear" x1="320.74" y1="20.175" x2="321.806" y2="20.1886" gradientUnits="userSpaceOnUse">
<stop stop-color="#564354" stop-opacity="0.01"/>
<stop offset="1" stop-color="#2B202A"/>
</linearGradient>
<linearGradient id="paint2_linear" x1="443.74" y1="42.175" x2="444.806" y2="42.1886" gradientUnits="userSpaceOnUse">
<stop stop-color="#564354" stop-opacity="0.01"/>
<stop offset="1" stop-color="#2B202A"/>
</linearGradient>
<linearGradient id="paint3_linear" x1="181.14" y1="44.175" x2="182.206" y2="44.1886" gradientUnits="userSpaceOnUse">
<stop stop-color="#564354" stop-opacity="0.01"/>
<stop offset="1" stop-color="#2B202A"/>
</linearGradient>
</defs>
</svg>
